# xmcd
#
# Track frame offsets:
#	150
#	17472
#	34878
#	46218
#	63820
#	78832
#	90856
#	109132
#	126965
#	146773
#	162359
#	180331
#	197704
#	215145
#	235345
#	249411
#	281503
#	294552
#	314813
#	334315
#
# Disc length: 4558 seconds
#
# Revision: 0
# Processed by: cddbd v1.5.2PL0 Copyright (c) Steve Scherf et al.
# Submitted via: audiograbber 1.83.01
#
DISCID=2011cc14
DTITLE=Alan Jackson - Genuine: The Alan Jackson Story CD2
DYEAR=2016
DGENRE=Country
TTITLE0=Livin' On Love
TTITLE1=I Don't Even Know Your Name
TTITLE2=Tall, Tall Trees
TTITLE3=I'll Try
TTITLE4=Home
TTITLE5=Little Bitty
TTITLE6=Who's Cheatin' Who
TTITLE7=There Goes
TTITLE8=Between the Devil and Me
TTITLE9=A House with No Curtains
TTITLE10=I'll Go On Loving You
TTITLE11=Right On the Money
TTITLE12=Gone Crazy
TTITLE13=Little Man
TTITLE14=Pop a Top
TTITLE15=The Blues Man
TTITLE16=It Must Be Love
TTITLE17=Wings
TTITLE18=Seguro Que Hell Yes
TTITLE19=The Star-Spangled Banner
EXTD=
EXTT0=
EXTT1=
EXTT2=
EXTT3=
EXTT4=
EXTT5=
EXTT6=
EXTT7=
EXTT8=
EXTT9=
EXTT10=
EXTT11=
EXTT12=
EXTT13=
EXTT14=
EXTT15=
EXTT16=
EXTT17=
EXTT18=
EXTT19=
PLAYORDER=
